<?xml version="1.0" encoding="utf-8"?>
<!-- Generator: Adobe Illustrator 27.8.1, SVG Export Plug-In . SVG Version: 6.00 Build 0)  -->
<svg version="1.1" id="Layer_1" xmlns="http://www.w3.org/2000/svg" xmlns:xlink="http://www.w3.org/1999/xlink" x="0px" y="0px"
	 viewBox="0 0 1000 1000" style="enable-background:new 0 0 1000 1000;" xml:space="preserve">
<style type="text/css">
	.st0{fill:#050811;}
	.st1{fill:none;stroke:#000000;stroke-width:18.5;stroke-miterlimit:10;}
	.st2{fill:#F7F7F7;}
	.st3{fill:url(#SVGID_1_);}
	.st4{fill:url(#SVGID_00000182488039911138750440000010570448573145893018_);}
	.st5{fill:#2083CF;}
	.st6{fill:url(#SVGID_00000103977526461651938280000015602180025729247624_);}
	.st7{fill:url(#SVGID_00000085233507644386973630000008165918660273616274_);}
	.st8{fill:url(#SVGID_00000143600464731863246870000008335516275522104747_);}
	.st9{fill:url(#SVGID_00000126314643389327808640000007051253018617699478_);}
	.st10{fill:url(#SVGID_00000057830292837983266890000017892966225626479252_);}
	.st11{fill:url(#SVGID_00000052785323870079151180000004864004019646150582_);}
	.st12{fill:url(#SVGID_00000013898965930530687830000013128554520301608891_);}
	.st13{fill:url(#SVGID_00000127005289264754925060000001316636486658410375_);}
	.st14{fill:url(#SVGID_00000081649628424088134640000015889453057166202288_);}
	.st15{fill:url(#SVGID_00000179624967949975897600000000777128287308533912_);}
	.st16{fill:url(#SVGID_00000183927025609596250950000013715463216276513958_);}
	.st17{fill:url(#SVGID_00000166637251093095482410000003461710543745407659_);}
	.st18{fill:#124A8A;}
</style>
<rect class="st0" width="1000" height="1000"/>
<g>
	<path class="st1" d="M478-174.6h-78.7c-19.2,0-36.3,12.1-42.7,30.3l0,0c-10.3,29.4,11.5,60.1,42.7,60.1h23.8"/>
	<polyline class="st1" points="408.9,-129.5 478,-129.5 443.4,-74.9 	"/>
	<path class="st1" d="M478-84.3h56.3c25,0,45.2-20.2,45.2-45.2v0c0-25-20.2-45.2-45.2-45.2h-40.6"/>
	<line class="st1" x1="680.6" y1="-174.6" x2="584.2" y2="-174.6"/>
	<line class="st1" x1="680.6" y1="-129.5" x2="584.2" y2="-129.5"/>
	<line class="st1" x1="680.6" y1="-84.3" x2="584.2" y2="-84.3"/>
</g>
<g>
	<g>
		<path class="st2" d="M360.7,523.3h-27.3c-25.6,0-48.8-12-63.6-32.9c-14.8-20.9-18.5-46.7-10-70.9c10.9-31.3,40.5-52.3,73.6-52.3
			H456l-18.6,26.5H333.3c-21.9,0-41.4,13.9-48.6,34.5c-5.6,16-3.2,33,6.6,46.8c9.8,13.8,25.1,21.7,42,21.7H377L360.7,523.3z"/>
		<linearGradient id="SVGID_1_" gradientUnits="userSpaceOnUse" x1="317.3796" y1="312.4521" x2="408.1658" y2="554.3066">
			<stop  offset="2.770450e-07" style="stop-color:#F7F7F7"/>
			<stop  offset="1" style="stop-color:#66676B"/>
		</linearGradient>
		<path class="st3" d="M333.3,522.7c-25.4,0-48.4-11.9-63.1-32.6c-14.7-20.7-18.3-46.4-10-70.4c10.8-31,40.2-51.9,73.1-51.9h121.5
			l-17.8,25.4H333.3c-22.1,0-41.9,14-49.2,34.9c-5.6,16.1-3.2,33.4,6.7,47.3c9.9,13.9,25.4,21.9,42.5,21.9H376l-15.6,25.4H333.3z"/>
		<polygon class="st2" points="412.3,523.3 381,523.3 422,458.5 337.2,458.5 355.1,432 470.1,432 		"/>
		
			<linearGradient id="SVGID_00000075871095577252989490000012445946375271298490_" gradientUnits="userSpaceOnUse" x1="349.7788" y1="301.5857" x2="440.1414" y2="542.3118">
			<stop  offset="2.770450e-07" style="stop-color:#F7F7F7"/>
			<stop  offset="1" style="stop-color:#66676B"/>
		</linearGradient>
		<polygon style="fill:url(#SVGID_00000075871095577252989490000012445946375271298490_);" points="382,522.7 423,457.9 
			338.3,457.9 355.4,432.6 469.1,432.6 412,522.7 		"/>
		<path class="st5" d="M526.7,523.3h-92.4l16.9-26.5h75.5c28.4,0,51.5-23.1,51.5-51.5s-23.1-51.5-51.5-51.5h-66.9l18.6-26.5h48.3
			c43,0,78,35,78,78C604.7,488.3,569.7,523.3,526.7,523.3z"/>
		
			<linearGradient id="SVGID_00000157294546744806076520000005237682019028328873_" gradientUnits="userSpaceOnUse" x1="595.2375" y1="381.5723" x2="504.9214" y2="454.478">
			<stop  offset="1.385225e-07" style="stop-color:#2083CF"/>
			<stop  offset="1" style="stop-color:#124A8A"/>
		</linearGradient>
		<path style="fill:url(#SVGID_00000157294546744806076520000005237682019028328873_);" d="M435.3,522.7l16.2-25.4h75.2
			c28.7,0,52.1-23.4,52.1-52.1s-23.4-52.1-52.1-52.1h-65.8l17.8-25.4h48c42.7,0,77.4,34.7,77.4,77.4s-34.7,77.4-77.4,77.4H435.3z"/>
		<path class="st2" d="M744.8,367.2l-13.2,26.5H613.5c-6-10.1-13.7-19.1-22.8-26.5H744.8z"/>
		
			<linearGradient id="SVGID_00000085949069204777494790000007871209579466427546_" gradientUnits="userSpaceOnUse" x1="576.8818" y1="380.4993" x2="739.6518" y2="380.4993">
			<stop  offset="2.770450e-07" style="stop-color:#F7F7F7"/>
			<stop  offset="1" style="stop-color:#66676B"/>
		</linearGradient>
		<path style="fill:url(#SVGID_00000085949069204777494790000007871209579466427546_);" d="M613.8,393.2c-5.7-9.6-13-18.1-21.5-25.4
			h151.6l-12.6,25.4H613.8z"/>
		<path class="st2" d="M738.9,432l-13.2,26.5h-99c0.6-4.3,0.9-8.8,0.9-13.3c0-4.5-0.3-8.9-0.9-13.3H738.9z"/>
		
			<linearGradient id="SVGID_00000002353914993247639830000011867288170616098231_" gradientUnits="userSpaceOnUse" x1="576.4263" y1="445.2523" x2="739.5603" y2="445.2523">
			<stop  offset="2.770450e-07" style="stop-color:#F7F7F7"/>
			<stop  offset="1" style="stop-color:#66676B"/>
		</linearGradient>
		<path style="fill:url(#SVGID_00000002353914993247639830000011867288170616098231_);" d="M627.4,457.9c0.5-4.2,0.8-8.5,0.8-12.7
			c0-4.2-0.3-8.5-0.8-12.7H738l-12.6,25.4H627.4z"/>
		<path class="st2" d="M728.5,496.7l-13.2,26.5H590.7c9-7.4,16.8-16.4,22.8-26.5H728.5z"/>
		
			<linearGradient id="SVGID_00000063606951779920939230000003756780950151531967_" gradientUnits="userSpaceOnUse" x1="576.9118" y1="510.0054" x2="739.3638" y2="510.0054">
			<stop  offset="2.770450e-07" style="stop-color:#F7F7F7"/>
			<stop  offset="1" style="stop-color:#66676B"/>
		</linearGradient>
		<path style="fill:url(#SVGID_00000063606951779920939230000003756780950151531967_);" d="M592.3,522.7
			c8.6-7.3,15.8-15.8,21.5-25.4h113.8L715,522.7H592.3z"/>
	</g>
	<g>
		
			<linearGradient id="SVGID_00000158741429357355936830000015635427598781874072_" gradientUnits="userSpaceOnUse" x1="314.7714" y1="558.8703" x2="314.7714" y2="598.403">
			<stop  offset="2.770450e-07" style="stop-color:#F7F7F7"/>
			<stop  offset="1" style="stop-color:#66676B"/>
		</linearGradient>
		<path style="fill:url(#SVGID_00000158741429357355936830000015635427598781874072_);" d="M313,592.2V570h-8.7v-3.2h21v3.2h-8.7
			v22.2H313z"/>
		
			<linearGradient id="SVGID_00000147901123800957218280000003707009650593919622_" gradientUnits="userSpaceOnUse" x1="367.3605" y1="558.8703" x2="367.3605" y2="598.403">
			<stop  offset="2.770450e-07" style="stop-color:#F7F7F7"/>
			<stop  offset="1" style="stop-color:#66676B"/>
		</linearGradient>
		<path style="fill:url(#SVGID_00000147901123800957218280000003707009650593919622_);" d="M361.8,589h14.8v3.2h-18.4v-25.3h17.9
			v3.2h-14.3V589z M361.5,577.7h13v3.1h-13V577.7z"/>
		
			<linearGradient id="SVGID_00000146472318718963107800000008594695959330835334_" gradientUnits="userSpaceOnUse" x1="420.8184" y1="558.8703" x2="420.8184" y2="598.403">
			<stop  offset="2.770450e-07" style="stop-color:#F7F7F7"/>
			<stop  offset="1" style="stop-color:#66676B"/>
		</linearGradient>
		<path style="fill:url(#SVGID_00000146472318718963107800000008594695959330835334_);" d="M422.7,592.4c-1.9,0-3.7-0.3-5.3-1
			c-1.6-0.6-3-1.5-4.2-2.7c-1.2-1.2-2.1-2.5-2.8-4.1c-0.7-1.6-1-3.3-1-5.2c0-1.9,0.3-3.6,1-5.2c0.7-1.6,1.6-2.9,2.8-4.1
			c1.2-1.2,2.6-2.1,4.3-2.7s3.4-1,5.3-1c2,0,3.8,0.3,5.4,1c1.7,0.7,3.1,1.6,4.2,3l-2.4,2.3c-1-1-2.1-1.8-3.3-2.3
			c-1.2-0.5-2.5-0.7-3.9-0.7c-1.4,0-2.7,0.2-4,0.7c-1.2,0.5-2.3,1.2-3.2,2c-0.9,0.9-1.6,1.9-2.1,3.1c-0.5,1.2-0.7,2.5-0.7,3.9
			c0,1.4,0.2,2.7,0.7,3.9c0.5,1.2,1.2,2.2,2.1,3.1c0.9,0.9,1.9,1.5,3.2,2c1.2,0.5,2.5,0.7,4,0.7c1.4,0,2.7-0.2,3.9-0.7
			c1.2-0.5,2.3-1.3,3.3-2.3l2.4,2.3c-1.2,1.3-2.6,2.3-4.2,3C426.5,592.1,424.7,592.4,422.7,592.4z"/>
		
			<linearGradient id="SVGID_00000061448128507047761000000002667988815234842297_" gradientUnits="userSpaceOnUse" x1="477.3895" y1="558.8703" x2="477.3895" y2="598.403">
			<stop  offset="2.770450e-07" style="stop-color:#F7F7F7"/>
			<stop  offset="1" style="stop-color:#66676B"/>
		</linearGradient>
		<path style="fill:url(#SVGID_00000061448128507047761000000002667988815234842297_);" d="M470.1,592.2h-3.6v-25.3h3.6V592.2z
			 M485,580.9h-15.2v-3.1H485V580.9z M484.7,566.8h3.6v25.3h-3.6V566.8z"/>
		
			<linearGradient id="SVGID_00000050629152246682466460000014999640782629211270_" gradientUnits="userSpaceOnUse" x1="535.7542" y1="558.8703" x2="535.7542" y2="598.403">
			<stop  offset="2.770450e-07" style="stop-color:#F7F7F7"/>
			<stop  offset="1" style="stop-color:#66676B"/>
		</linearGradient>
		<path style="fill:url(#SVGID_00000050629152246682466460000014999640782629211270_);" d="M524.9,592.2v-25.3h3l16.8,20.8H543
			v-20.8h3.6v25.3h-3l-16.8-20.8h1.6v20.8H524.9z"/>
		
			<linearGradient id="SVGID_00000142163259014785696300000007554822109146671778_" gradientUnits="userSpaceOnUse" x1="585.03" y1="558.8703" x2="585.03" y2="598.403">
			<stop  offset="2.770450e-07" style="stop-color:#F7F7F7"/>
			<stop  offset="1" style="stop-color:#66676B"/>
		</linearGradient>
		<path style="fill:url(#SVGID_00000142163259014785696300000007554822109146671778_);" d="M583.2,592.2v-25.3h3.6v25.3H583.2z"/>
		
			<linearGradient id="SVGID_00000130617377633094345380000017667839871904508046_" gradientUnits="userSpaceOnUse" x1="632.876" y1="558.8703" x2="632.876" y2="598.403">
			<stop  offset="2.770450e-07" style="stop-color:#F7F7F7"/>
			<stop  offset="1" style="stop-color:#66676B"/>
		</linearGradient>
		<path style="fill:url(#SVGID_00000130617377633094345380000017667839871904508046_);" d="M634.7,592.4c-1.9,0-3.7-0.3-5.3-1
			c-1.6-0.6-3-1.5-4.2-2.7c-1.2-1.2-2.1-2.5-2.8-4.1c-0.7-1.6-1-3.3-1-5.2c0-1.9,0.3-3.6,1-5.2s1.6-2.9,2.8-4.1
			c1.2-1.2,2.6-2.1,4.3-2.7c1.6-0.6,3.4-1,5.3-1c2,0,3.8,0.3,5.4,1c1.7,0.7,3.1,1.6,4.2,3l-2.4,2.3c-1-1-2.1-1.8-3.3-2.3
			c-1.2-0.5-2.5-0.7-3.9-0.7c-1.4,0-2.7,0.2-4,0.7c-1.2,0.5-2.3,1.2-3.2,2c-0.9,0.9-1.6,1.9-2.1,3.1c-0.5,1.2-0.7,2.5-0.7,3.9
			c0,1.4,0.2,2.7,0.7,3.9c0.5,1.2,1.2,2.2,2.1,3.1c0.9,0.9,1.9,1.5,3.2,2c1.2,0.5,2.5,0.7,4,0.7c1.4,0,2.7-0.2,3.9-0.7
			c1.2-0.5,2.3-1.3,3.3-2.3l2.4,2.3c-1.2,1.3-2.6,2.3-4.2,3C638.5,592.1,636.7,592.4,634.7,592.4z"/>
		
			<linearGradient id="SVGID_00000080889915650400825390000011561584013002017930_" gradientUnits="userSpaceOnUse" x1="685.9532" y1="558.8703" x2="685.9532" y2="598.403">
			<stop  offset="2.770450e-07" style="stop-color:#F7F7F7"/>
			<stop  offset="1" style="stop-color:#66676B"/>
		</linearGradient>
		<path style="fill:url(#SVGID_00000080889915650400825390000011561584013002017930_);" d="M685.9,592.4c-1.9,0-3.8-0.3-5.5-0.9
			c-1.8-0.6-3.1-1.4-4.2-2.3l1.3-2.8c1,0.8,2.2,1.5,3.7,2.1c1.5,0.6,3.1,0.8,4.7,0.8c1.5,0,2.7-0.2,3.6-0.5c0.9-0.3,1.6-0.8,2-1.4
			c0.4-0.6,0.7-1.3,0.7-2c0-0.9-0.3-1.6-0.9-2.1c-0.6-0.5-1.3-1-2.2-1.3c-0.9-0.3-1.9-0.6-3-0.9c-1.1-0.2-2.2-0.5-3.3-0.9
			s-2.1-0.7-3-1.2c-0.9-0.5-1.6-1.2-2.2-2c-0.6-0.9-0.8-2-0.8-3.3c0-1.3,0.3-2.5,1-3.6c0.7-1.1,1.7-2,3.2-2.6s3.3-1,5.5-1
			c1.5,0,2.9,0.2,4.4,0.6c1.4,0.4,2.7,0.9,3.8,1.7l-1.2,2.9c-1.1-0.7-2.2-1.2-3.4-1.6c-1.2-0.3-2.4-0.5-3.5-0.5
			c-1.4,0-2.6,0.2-3.5,0.5c-0.9,0.4-1.6,0.8-2,1.4c-0.4,0.6-0.6,1.3-0.6,2c0,0.9,0.3,1.6,0.9,2.1c0.6,0.5,1.3,1,2.2,1.3
			c0.9,0.3,1.9,0.6,3,0.9s2.2,0.5,3.3,0.9c1.1,0.3,2.1,0.7,3,1.2c0.9,0.5,1.6,1.2,2.2,2c0.6,0.8,0.8,1.9,0.8,3.3
			c0,1.3-0.3,2.5-1,3.6c-0.7,1.1-1.8,2-3.2,2.6C690,592.1,688.1,592.4,685.9,592.4z"/>
	</g>
	<rect x="410.2" y="629.9" class="st18" width="179.5" height="2.9"/>
</g>
</svg>
